<mxGraphModel dx="1215" dy="850" grid="1" gridSize="10" guides="1" tooltips="1" connect="1" arrows="1" fold="1" page="1" pageScale="1" pageWidth="850" pageHeight="1100" math="0" shadow="0">
  <root>
    <mxCell id="0" />
    <mxCell id="1" parent="0" />
    <mxCell id="2" value="เริ่มต้น" style="ellipse;whiteSpace=wrap;html=1;fillColor=#dae8fc;strokeColor=#6c8ebf;" vertex="1" parent="1">
      <mxGeometry x="360" y="20" width="100" height="50" as="geometry" />
    </mxCell>
    <mxCell id="3" value="ประกาศตัวแปร score (คะแนน)" style="rounded=0;whiteSpace=wrap;html=1;fillColor=#d5e8d4;strokeColor=#82b366;" vertex="1" parent="1">
      <mxGeometry x="320" y="100" width="180" height="50" as="geometry" />
    </mxCell>
    <mxCell id="4" value="แสดงข้อความ &quot;enter score :&quot;&lt;br&gt;และรับค่า score" style="shape=parallelogram;perimeter=parallelogramPerimeter;whiteSpace=wrap;html=1;fixedSize=1;fillColor=#fff2cc;strokeColor=#d6b656;" vertex="1" parent="1">
      <mxGeometry x="305" y="190" width="210" height="60" as="geometry" />
    </mxCell>
    <mxCell id="5" value="รับค่าคะแนนสำเร็จหรือไม่?" style="rhombus;whiteSpace=wrap;html=1;fillColor=#f8cecc;strokeColor=#b85450;" vertex="1" parent="1">
      <mxGeometry x="340" y="290" width="140" height="80" as="geometry" />
    </mxCell>
    <mxCell id="6" value="แสดง Error: Invalid input." style="shape=parallelogram;perimeter=parallelogramPerimeter;whiteSpace=wrap;html=1;fixedSize=1;fillColor=#fff2cc;strokeColor=#d6b656;" vertex="1" parent="1">
      <mxGeometry x="100" y="305" width="200" height="50" as="geometry" />
    </mxCell>
    <mxCell id="7" value="คืนค่า 1 (Return 1)" style="rounded=0;whiteSpace=wrap;html=1;fillColor=#d5e8d4;strokeColor=#82b366;" vertex="1" parent="1">
      <mxGeometry x="135" y="420" width="130" height="50" as="geometry" />
    </mxCell>
    <mxCell id="8" value="score &gt;= 80 ?" style="rhombus;whiteSpace=wrap;html=1;fillColor=#d4e1f5;strokeColor=#7ea6e0;" vertex="1" parent="1">
      <mxGeometry x="340" y="420" width="140" height="50" as="geometry" />
    </mxCell>
    <mxCell id="9" value="แสดง &quot;A !&quot;" style="shape=parallelogram;perimeter=parallelogramPerimeter;whiteSpace=wrap;html=1;fixedSize=1;fillColor=#fff2cc;strokeColor=#d6b656;" vertex="1" parent="1">
      <mxGeometry x="540" y="420" width="120" height="50" as="geometry" />
    </mxCell>
    <mxCell id="10" value="score &gt;= 75 ?" style="rhombus;whiteSpace=wrap;html=1;fillColor=#d4e1f5;strokeColor=#7ea6e0;" vertex="1" parent="1">
      <mxGeometry x="340" y="520" width="140" height="50" as="geometry" />
    </mxCell>
    <mxCell id="11" value="แสดง &quot;B+ !&quot;" style="shape=parallelogram;perimeter=parallelogramPerimeter;whiteSpace=wrap;html=1;fixedSize=1;fillColor=#fff2cc;strokeColor=#d6b656;" vertex="1" parent="1">
      <mxGeometry x="540" y="520" width="120" height="50" as="geometry" />
    </mxCell>
    <mxCell id="12" value="score &gt;= 70 ?" style="rhombus;whiteSpace=wrap;html=1;fillColor=#d4e1f5;strokeColor=#7ea6e0;" vertex="1" parent="1">
      <mxGeometry x="340" y="620" width="140" height="50" as="geometry" />
    </mxCell>
    <mxCell id="13" value="แสดง &quot;B !&quot;" style="shape=parallelogram;perimeter=parallelogramPerimeter;whiteSpace=wrap;html=1;fixedSize=1;fillColor=#fff2cc;strokeColor=#d6b656;" vertex="1" parent="1">
      <mxGeometry x="540" y="620" width="120" height="50" as="geometry" />
    </mxCell>
    <mxCell id="14" value="score &gt;= 65 ?" style="rhombus;whiteSpace=wrap;html=1;fillColor=#d4e1f5;strokeColor=#7ea6e0;" vertex="1" parent="1">
      <mxGeometry x="340" y="720" width="140" height="50" as="geometry" />
    </mxCell>
    <mxCell id="15" value="แสดง &quot;C+ !&quot;" style="shape=parallelogram;perimeter=parallelogramPerimeter;whiteSpace=wrap;html=1;fixedSize=1;fillColor=#fff2cc;strokeColor=#d6b656;" vertex="1" parent="1">
      <mxGeometry x="540" y="720" width="120" height="50" as="geometry" />
    </mxCell>
    <mxCell id="16" value="score &gt;= 60 ?" style="rhombus;whiteSpace=wrap;html=1;fillColor=#d4e1f5;strokeColor=#7ea6e0;" vertex="1" parent="1">
      <mxGeometry x="340" y="820" width="140" height="50" as="geometry" />
    </mxCell>
    <mxCell id="17" value="แสดง &quot;C !&quot;" style="shape=parallelogram;perimeter=parallelogramPerimeter;whiteSpace=wrap;html=1;fixedSize=1;fillColor=#fff2cc;strokeColor=#d6b656;" vertex="1" parent="1">
      <mxGeometry x="540" y="820" width="120" height="50" as="geometry" />
    </mxCell>
    <mxCell id="18" value="score &gt;= 55 ?" style="rhombus;whiteSpace=wrap;html=1;fillColor=#d4e1f5;strokeColor=#7ea6e0;" vertex="1" parent="1">
      <mxGeometry x="340" y="920" width="140" height="50" as="geometry" />
    </mxCell>
    <mxCell id="19" value="แสดง &quot;D+ !&quot;" style="shape=parallelogram;perimeter=parallelogramPerimeter;whiteSpace=wrap;html=1;fixedSize=1;fillColor=#fff2cc;strokeColor=#d6b656;" vertex="1" parent="1">
      <mxGeometry x="540" y="920" width="120" height="50" as="geometry" />
    </mxCell>
    <mxCell id="20" value="score &gt;= 50 ?" style="rhombus;whiteSpace=wrap;html=1;fillColor=#d4e1f5;strokeColor=#7ea6e0;" vertex="1" parent="1">
      <mxGeometry x="340" y="1020" width="140" height="50" as="geometry" />
    </mxCell>
    <mxCell id="21" value="แสดง &quot;D !&quot;" style="shape=parallelogram;perimeter=parallelogramPerimeter;whiteSpace=wrap;html=1;fixedSize=1;fillColor=#fff2cc;strokeColor=#d6b656;" vertex="1" parent="1">
      <mxGeometry x="540" y="1020" width="120" height="50" as="geometry" />
    </mxCell>
    <mxCell id="22" value="แสดง &quot;F !&quot;" style="shape=parallelogram;perimeter=parallelogramPerimeter;whiteSpace=wrap;html=1;fixedSize=1;fillColor=#fff2cc;strokeColor=#d6b656;" vertex="1" parent="1">
      <mxGeometry x="340" y="1120" width="140" height="50" as="geometry" />
    </mxCell>
    <mxCell id="23" value="คืนค่า 0 (Return 0)" style="rounded=0;whiteSpace=wrap;html=1;fillColor=#d5e8d4;strokeColor=#82b366;" vertex="1" parent="1">
      <mxGeometry x="540" y="1120" width="120" height="50" as="geometry" />
    </mxCell>
    <mxCell id="24" value="สิ้นสุด" style="ellipse;whiteSpace=wrap;html=1;fillColor=#dae8fc;strokeColor=#6c8ebf;" vertex="1" parent="1">
      <mxGeometry x="550" y="1220" width="100" height="50" as="geometry" />
    </mxCell>
    <mxCell id="25" value="" style="endArrow=classic;html=1;" edge="1" parent="1" source="2" target="3">
      <mxGeometry width="50" height="50" relative="1" as="geometry">
        <mxPoint x="410" y="70" as="sourcePoint" />
        <mxPoint x="410" y="100" as="targetPoint" />
      </mxGeometry>
    </mxCell>
    <mxCell id="26" value="" style="endArrow=classic;html=1;" edge="1" parent="1" source="3" target="4">
      <mxGeometry width="50" height="50" relative="1" as="geometry">
        <mxPoint x="410" y="150" as="sourcePoint" />
        <mxPoint x="410" y="190" as="targetPoint" />
      </mxGeometry>
    </mxCell>
    <mxCell id="27" value="" style="endArrow=classic;html=1;" edge="1" parent="1" source="4" target="5">
      <mxGeometry width="50" height="50" relative="1" as="geometry">
        <mxPoint x="410" y="250" as="sourcePoint" />
        <mxPoint x="410" y="290" as="targetPoint" />
      </mxGeometry>
    </mxCell>
    <mxCell id="28" value="จริง" style="edgeStyle=orthogonalEdgeStyle;html=1;align=center;verticalAlign=bottom;endArrow=classic;" edge="1" parent="1" source="5" target="6">
      <mxGeometry relative="1" as="geometry">
        <mxPoint x="340" y="330" as="sourcePoint" />
        <Array as="points">
          <mxPoint x="200" y="330" />
        </Array>
      </mxGeometry>
    </mxCell>
    <mxCell id="29" value="" style="endArrow=classic;html=1;" edge="1" parent="1" source="6" target="7">
      <mxGeometry width="50" height="50" relative="1" as="geometry">
        <mxPoint x="200" y="355" as="sourcePoint" />
        <mxPoint x="200" y="420" as="targetPoint" />
      </mxGeometry>
    </mxCell>
    <mxCell id="30" value="" style="endArrow=classic;html=1;entryDx=0;entryDy=0;entryPerimeter=0;" edge="1" parent="1" source="7" target="24">
      <mxGeometry width="50" height="50" relative="1" as="geometry">
        <mxPoint x="200" y="470" as="sourcePoint" />
        <Array as="points">
          <mxPoint x="200" y="1245" />
          <mxPoint x="550" y="1245" />
        </Array>
      </mxGeometry>
    </mxCell>
    <mxCell id="31" value="เท็จ" style="endArrow=classic;html=1;align=center;verticalAlign=bottom;entryDx=0;entryDy=0;entryPerimeter=0;" edge="1" parent="1" source="5" target="8">
      <mxGeometry relative="1" as="geometry">
        <mxPoint x="410" y="370" as="sourcePoint" />
        <mxPoint x="410" y="420" as="targetPoint" />
      </mxGeometry>
    </mxCell>
    <mxCell id="32" value="จริง (A)" style="edgeStyle=orthogonalEdgeStyle;html=1;align=center;verticalAlign=bottom;endArrow=classic;" edge="1" parent="1" source="8" target="9">
      <mxGeometry relative="1" as="geometry">
        <mxPoint x="480" y="445" as="sourcePoint" />
        <Array as="points">
          <mxPoint x="510" y="445" />
        </Array>
      </mxGeometry>
    </mxCell>
    <mxCell id="33" value="เท็จ" style="endArrow=classic;html=1;align=center;verticalAlign=bottom;" edge="1" parent="1" source="8" target="10">
      <mxGeometry relative="1" as="geometry">
        <mxPoint x="410" y="470" as="sourcePoint" />
        <mxPoint x="410" y="520" as="targetPoint" />
      </mxGeometry>
    </mxCell>
    <mxCell id="34" value="จริง (B+)" style="edgeStyle=orthogonalEdgeStyle;html=1;align=center;verticalAlign=bottom;endArrow=classic;" edge="1" parent="1" source="10" target="11">
      <mxGeometry relative="1" as="geometry">
        <mxPoint x="480" y="545" as="sourcePoint" />
        <Array as="points">
          <mxPoint x="510" y="545" />
        </Array>
      </mxGeometry>
    </mxCell>
    <mxCell id="35" value="เท็จ" style="endArrow=classic;html=1;align=center;verticalAlign=bottom;" edge="1" parent="1" source="10" target="12">
      <mxGeometry relative="1" as="geometry">
        <mxPoint x="410" y="570" as="sourcePoint" />
        <mxPoint x="410" y="620" as="targetPoint" />
      </mxGeometry>
    </mxCell>
    <mxCell id="36" value="จริง (B)" style="edgeStyle=orthogonalEdgeStyle;html=1;align=center;verticalAlign=bottom;endArrow=classic;" edge="1" parent="1" source="12" target="13">
      <mxGeometry relative="1" as="geometry">
        <mxPoint x="480" y="645" as="sourcePoint" />
        <Array as="points">
          <mxPoint x="510" y="645" />
        </Array>
      </mxGeometry>
    </mxCell>
    <mxCell id="37" value="เท็จ" style="endArrow=classic;html=1;align=center;verticalAlign=bottom;" edge="1" parent="1" source="12" target="14">
      <mxGeometry relative="1" as="geometry">
        <mxPoint x="410" y="670" as="sourcePoint" />
        <mxPoint x="410" y="720" as="targetPoint" />
      </mxGeometry>
    </mxCell>
    <mxCell id="38" value="จริง (C+)" style="edgeStyle=orthogonalEdgeStyle;html=1;align=center;verticalAlign=bottom;endArrow=classic;" edge="1" parent="1" source="14" target="15">
      <mxGeometry relative="1" as="geometry">
        <mxPoint x="480" y="745" as="sourcePoint" />
        <Array as="points">
          <mxPoint x="510" y="745" />
        </Array>
      </mxGeometry>
    </mxCell>
    <mxCell id="39" value="เท็จ" style="endArrow=classic;html=1;align=center;verticalAlign=bottom;" edge="1" parent="1" source="14" target="16">
      <mxGeometry relative="1" as="geometry">
        <mxPoint x="410" y="770" as="sourcePoint" />
        <mxPoint x="410" y="820" as="targetPoint" />
      </mxGeometry>
    </mxCell>
    <mxCell id="40" value="จริง (C)" style="edgeStyle=orthogonalEdgeStyle;html=1;align=center;verticalAlign=bottom;endArrow=classic;" edge="1" parent="1" source="16" target="17">
      <mxGeometry relative="1" as="geometry">
        <mxPoint x="480" y="845" as="sourcePoint" />
        <Array as="points">
          <mxPoint x="510" y="845" />
        </Array>
      </mxGeometry>
    </mxCell>
    <mxCell id="41" value="เท็จ" style="endArrow=classic;html=1;align=center;verticalAlign=bottom;" edge="1" parent="1" source="16" target="18">
      <mxGeometry relative="1" as="geometry">
        <mxPoint x="410" y="870" as="sourcePoint" />
        <mxPoint x="410" y="920" as="targetPoint" />
      </mxGeometry>
    </mxCell>
    <mxCell id="42" value="จริง (D+)" style="edgeStyle=orthogonalEdgeStyle;html=1;align=center;verticalAlign=bottom;endArrow=classic;" edge="1" parent="1" source="18" target="19">
      <mxGeometry relative="1" as="geometry">
        <mxPoint x="480" y="945" as="sourcePoint" />
        <Array as="points">
          <mxPoint x="510" y="945" />
        </Array>
      </mxGeometry>
    </mxCell>
    <mxCell id="43" value="เท็จ" style="endArrow=classic;html=1;align=center;verticalAlign=bottom;" edge="1" parent="1" source="18" target="20">
      <mxGeometry relative="1" as="geometry">
        <mxPoint x="410" y="970" as="sourcePoint" />
        <mxPoint x="410" y="1020" as="targetPoint" />
      </mxGeometry>
    </mxCell>
    <mxCell id="44" value="จริง (D)" style="edgeStyle=orthogonalEdgeStyle;html=1;align=center;verticalAlign=bottom;endArrow=classic;" edge="1" parent="1" source="20" target="21">
      <mxGeometry relative="1" as="geometry">
        <mxPoint x="480" y="1045" as="sourcePoint" />
        <Array as="points">
          <mxPoint x="510" y="1045" />
        </Array>
      </mxGeometry>
    </mxCell>
    <mxCell id="45" value="เท็จ (F)" style="endArrow=classic;html=1;align=center;verticalAlign=bottom;entryDx=0;entryDy=0;entryPerimeter=0;" edge="1" parent="1" source="20" target="22">
      <mxGeometry relative="1" as="geometry">
        <mxPoint x="410" y="1070" as="sourcePoint" />
        <mxPoint x="410" y="1120" as="targetPoint" />
      </mxGeometry>
    </mxCell>
    <mxCell id="46" value="" style="endArrow=classic;html=1;exitDx=0;exitDy=0;exitPerimeter=0;entryDx=0;entryDy=0;entryPerimeter=0;" edge="1" parent="1" source="9" target="23">
      <mxGeometry width="50" height="50" relative="1" as="geometry">
        <mxPoint x="600" y="470" as="sourcePoint" />
        <Array as="points">
          <mxPoint x="600" y="1100" />
        </Array>
      </mxGeometry>
    </mxCell>
    <mxCell id="47" value="" style="endArrow=classic;html=1;exitDx=0;exitDy=0;exitPerimeter=0;entryDx=0;entryDy=0;entryPerimeter=0;" edge="1" parent="1" source="11" target="23">
      <mxGeometry width="50" height="50" relative="1" as="geometry">
        <mxPoint x="600" y="570" as="sourcePoint" />
        <Array as="points">
          <mxPoint x="600" y="1100" />
        </Array>
      </mxGeometry>
    </mxCell>
    <mxCell id="48" value="" style="endArrow=classic;html=1;exitDx=0;exitDy=0;exitPerimeter=0;entryDx=0;entryDy=0;entryPerimeter=0;" edge="1" parent="1" source="13" target="23">
      <mxGeometry width="50" height="50" relative="1" as="geometry">
        <mxPoint x="600" y="670" as="sourcePoint" />
        <Array as="points">
          <mxPoint x="600" y="1100" />
        </Array>
      </mxGeometry>
    </mxCell>
    <mxCell id="49" value="" style="endArrow=classic;html=1;exitDx=0;exitDy=0;exitPerimeter=0;entryDx=0;entryDy=0;entryPerimeter=0;" edge="1" parent="1" source="15" target="23">
      <mxGeometry width="50" height="50" relative="1" as="geometry">
        <mxPoint x="600" y="770" as="sourcePoint" />
        <Array as="points">
          <mxPoint x="600" y="1100" />
        </Array>
      </mxGeometry>
    </mxCell>
    <mxCell id="50" value="" style="endArrow=classic;html=1;exitDx=0;exitDy=0;exitPerimeter=0;entryDx=0;entryDy=0;entryPerimeter=0;" edge="1" parent="1" source="17" target="23">
      <mxGeometry width="50" height="50" relative="1" as="geometry">
        <mxPoint x="600" y="870" as="sourcePoint" />
        <Array as="points">
          <mxPoint x="600" y="1100" />
        </Array>
      </mxGeometry>
    </mxCell>
    <mxCell id="51" value="" style="endArrow=classic;html=1;exitDx=0;exitDy=0;exitPerimeter=0;entryDx=0;entryDy=0;entryPerimeter=0;" edge="1" parent="1" source="19" target="23">
      <mxGeometry width="50" height="50" relative="1" as="geometry">
        <mxPoint x="600" y="970" as="sourcePoint" />
        <Array as="points">
          <mxPoint x="600" y="1100" />
        </Array>
      </mxGeometry>
    </mxCell>
    <mxCell id="52" value="" style="endArrow=classic;html=1;exitDx=0;exitDy=0;exitPerimeter=0;entryDx=0;entryDy=0;entryPerimeter=0;" edge="1" parent="1" source="21" target="23">
      <mxGeometry width="50" height="50" relative="1" as="geometry">
        <mxPoint x="600" y="1070" as="sourcePoint" />
        <Array as="points">
          <mxPoint x="600" y="1100" />
        </Array>
      </mxGeometry>
    </mxCell>
    <mxCell id="53" value="" style="endArrow=classic;html=1;exitDx=0;exitDy=0;exitPerimeter=0;entryDx=0;entryDy=0;entryPerimeter=0;" edge="1" parent="1" source="22" target="23">
      <mxGeometry width="50" height="50" relative="1" as="geometry">
        <mxPoint x="410" y="1170" as="sourcePoint" />
        <Array as="points">
          <mxPoint x="410" y="1145" />
          <mxPoint x="540" y="1145" />
        </Array>
      </mxGeometry>
    </mxCell>
    <mxCell id="54" value="" style="endArrow=classic;html=1;" edge="1" parent="1" source="23" target="24">
      <mxGeometry width="50" height="50" relative="1" as="geometry">
        <mxPoint x="600" y="1170" as="sourcePoint" />
        <mxPoint x="600" y="1220" as="targetPoint" />
      </mxGeometry>
    </mxCell>
  </root>
</mxGraphModel>
